# xmcd
#
# Track frame offsets:
#	150
#	18372
#	34972
#	48608
#	66764
#	85613
#	102072
#	118153
#	131552
#	145392
#	160429
#	175854
#	192903
#
# Disc length: 2710 seconds
#
# Revision: 1
# Processed by: cddbd v1.5.2PL0 Copyright (c) Steve Scherf et al.
# Submitted via: audiograbber 1.83.01
#
DISCID=b40a940d
DTITLE=Jeff Bates - Demos Vol I
DYEAR=2006
DGENRE=Country
TTITLE0=Lonesome
TTITLE1=That Really Hits Home
TTITLE2=Makin' The Bed
TTITLE3=The Fifth
TTITLE4=The Dark
TTITLE5=Wood and Wire
TTITLE6=Brag about Something Like That
TTITLE7=Designated Drinker
TTITLE8=To Me
TTITLE9=Red Neck Of The Woods
TTITLE10=Six Strong Men
TTITLE11=I Didn't Drink Enough
TTITLE12=All Wrapped Up In Christmas
EXTD=
EXTT0=
EXTT1=
EXTT2=
EXTT3=
EXTT4=
EXTT5=
EXTT6=
EXTT7=
EXTT8=
EXTT9=
EXTT10=
EXTT11=
EXTT12=
PLAYORDER=
